<svg width="20" height="20" fill="none" xmlns="http://www.w3.org/2000/svg"><path d="m15.833 8.762 2.5 1.238m-1.666-2.5s-.267.556-.834 1.262l.834-1.262zM10 11.667c-1.34 0-2.46-.344-3.376-.834l3.376.834zm0 0c1.34 0 2.46-.344 3.376-.834L10 11.667zm0 0v2.916-2.916zM3.333 7.5s.295.614.922 1.37L3.333 7.5zm3.29 3.333-2.456 2.5 2.457-2.5zm0 0a8.028 8.028 0 0 1-2.368-1.962l2.369 1.962zm6.753 0 2.04 2.5-2.04-2.5zm0 0c1.109-.592 1.919-1.4 2.457-2.071l-2.457 2.071zm-9.12-1.962L1.665 10l2.59-1.13z" stroke="#949BA6" stroke-width="1.25" stroke-linecap="square"/></svg>